<svg xmlns="http://www.w3.org/2000/svg" xmlns:xlink="http://www.w3.org/1999/xlink" id="terminal" baseProfile="full" viewBox="0 0 575 690" width="575" version="1.1">
    <defs>
        <termtosvg:template_settings xmlns:termtosvg="https://github.com/nbedos/termtosvg">
            <termtosvg:screen_geometry columns="66" rows="32"/>
            <termtosvg:animation type="waapi"/>
        </termtosvg:template_settings>
        <style type="text/css" id="generated-style"><![CDATA[
        #screen {
            font-family: 'DejaVu Sans Mono', monospace;
            font-style: normal;
            font-size: 14px;
        }

        text {
            dominant-baseline: text-before-edge;
            white-space: pre;
        }
    ]]></style>
        <style type="text/css" id="user-style">
            /* The colors defined below are the default 16 colors used for rendering text of the terminal. Adjust
               them as needed.
               gjm8 color theme (source: https://terminal.sexy/) */
            .foreground {fill: #c5c5c5;}
            .background {fill: #1c1c1c;}
            .color0 {fill: #1c1c1c;}
            .color1 {fill: #ff005b;}
            .color2 {fill: #cee318;}
            .color3 {fill: #ffe755;}
            .color4 {fill: #048ac7;}
            .color5 {fill: #833c9f;}
            .color6 {fill: #0ac1cd;}
            .color7 {fill: #e5e5e5;}
            .color8 {fill: #1c1c1c;}
            .color9 {fill: #ff005b;}
            .color10 {fill: #cee318;}
            .color11 {fill: #ffe755;}
            .color12 {fill: #048ac7;}
            .color13 {fill: #833c9f;}
            .color14 {fill: #0ac1cd;}
            .color15 {fill: #e5e5e5;}
            #play-button {
                transform: translate(30px, calc(100% - 45px));
            }
            #pause-button {
                transform: translate(30px, calc(100% - 45px));
            }
            #wide_track {
                transform: translate(150px, calc(100% - 45px));
            }
            #track {
                transform: translate(150px, calc(100% - 33px));
            }
            #slider_button {
                transform: translate(0px, calc(100% - 30px));
            }
            #timer {
                transform: translate(60px, calc(100% - 38px));
                font-family: 'DejaVu Sans Mono', monospace;
                font-style: normal;
                font-size: 14px;
            }
        </style>
        <rect id="slider_wide_track" height="30px" width="65%"/>
        <rect id="slider_track" height="6px" width="65%"/>
        <circle id="slider_button" r="10px" class="color1"/>
        <g id="icon-play">
            <rect x="-5" y="0" width="25" height="30" class="background"/>
            <path d="M0 4l14 11-14 11z"/>
        </g>
        <g id="icon-pause">
            <rect x="-5" y="0" width="25" height="30" class="background"/>
            <rect x="0" y="5" width="5" height="20"/>
            <rect x="10" y="5" width="5" height="20"/>
        </g>
    </defs>
    <rect id="terminalui" class="background" width="100%" height="100%" ry="4.5826941"/>
    <circle cx="24" cy="23" r="7" class="color1"/>
    <circle cx="44" cy="23" r="7" class="color3"/>
    <circle cx="64" cy="23" r="7" class="color2"/>
    <svg id="screen" width="528" height="544" x="23" y="50" viewBox="0 0 528 544" preserveAspectRatio="xMidYMin slice">
        <rect class="background" height="100%" width="100%" x="0" y="0"/><defs><g id="g1"><text x="0" textLength="528" class="foreground">&#128194; /tmp/pre_commit_progress                                       </text></g><g id="g2"><text x="0" textLength="40" class="foreground">  &#9203; </text><text x="40" textLength="168" font-weight="bold" class="foreground">./example/ok1-1000.ts</text></g><g id="g3"><text x="0" textLength="208" font-weight="bold" class="foreground">  &#9203; ./example/ok2-5000.ts</text></g><g id="g4"><text x="0" textLength="280" font-weight="bold" class="foreground">&#128194; /tmp/pre_commit_progress/example</text></g><g id="g5"><text x="0" textLength="144" font-weight="bold" class="foreground">  &#9203; ./ko1-6000.ts</text></g><g id="g6"><text x="0" textLength="144" font-weight="bold" class="foreground">  &#9203; ./ok3-1000.ts</text></g><g id="g7"><text x="0" textLength="144" font-weight="bold" class="foreground">  &#9203; ./ok5-1000.ts</text></g><g id="g8"><text x="0" textLength="264" font-weight="bold" class="foreground">&#128194; /tmp/pre_commit_progress/.idea</text></g><g id="g9"><text x="0" textLength="216" font-weight="bold" class="foreground">  &#9203; ../example/ok4-3000.ts</text></g><g id="g10"><text x="0" textLength="216" font-weight="bold" class="foreground">  &#9203; ../example/ko2-1000.ts</text></g><g id="g11"><text x="0" textLength="216" font-weight="bold" class="foreground">  &#9203; ../example/ok6-2000.ts</text></g><g id="g12"><text x="0" textLength="528" font-weight="bold" class="foreground">&#128194; /tmp/pre_commit_progress                                       </text></g><g id="g13"><text x="0" textLength="40" font-weight="bold" class="foreground">  &#9193; </text><text x="40" textLength="168" font-weight="bold" class="color8">./example/ok1-1000.ts</text></g><g id="g14"><text x="0" textLength="40" font-weight="bold" class="foreground">  &#9193; </text><text x="40" textLength="168" font-weight="bold" class="color8">./example/ok2-5000.ts</text></g><g id="g15"><text x="0" textLength="40" font-weight="bold" class="foreground">  &#9193; </text><text x="40" textLength="104" font-weight="bold" class="color8">./ko1-6000.ts</text></g><g id="g16"><text x="0" textLength="40" font-weight="bold" class="foreground">  &#9989; </text><text x="40" textLength="168" font-weight="bold" class="color8">./example/ok1-1000.ts</text></g><g id="g17"><text x="0" textLength="40" font-weight="bold" class="foreground">  &#9193; </text><text x="40" textLength="104" font-weight="bold" class="color8">./ok3-1000.ts</text></g><g id="g18"><text x="0" textLength="40" font-weight="bold" class="foreground">  &#9989; </text><text x="40" textLength="104" font-weight="bold" class="color8">./ok3-1000.ts</text></g><g id="g19"><text x="0" textLength="40" font-weight="bold" class="foreground">  &#9193; </text><text x="40" textLength="104" font-weight="bold" class="color8">./ok5-1000.ts</text></g><g id="g20"><text x="0" textLength="40" font-weight="bold" class="foreground">  &#9989; </text><text x="40" textLength="104" font-weight="bold" class="color8">./ok5-1000.ts</text></g><g id="g21"><text x="0" textLength="40" font-weight="bold" class="foreground">  &#9193; </text><text x="40" textLength="176" font-weight="bold" class="color8">../example/ok4-3000.ts</text></g><g id="g22"><text x="0" textLength="216" font-weight="bold" class="foreground">  &#10060; ../example/ko2-1000.ts</text></g><g id="g23"><text x="0" textLength="40" font-weight="bold" class="foreground">  &#9989; </text><text x="40" textLength="176" font-weight="bold" class="color8">../example/ok4-3000.ts</text></g><g id="g24"><text x="0" textLength="40" font-weight="bold" class="foreground">  &#9193; </text><text x="40" textLength="176" font-weight="bold" class="color8">../example/ok6-2000.ts</text></g><g id="g25"><text x="0" textLength="40" font-weight="bold" class="foreground">  &#9989; </text><text x="40" textLength="168" font-weight="bold" class="color8">./example/ok2-5000.ts</text></g><g id="g26"><text x="0" textLength="40" font-weight="bold" class="foreground">  &#9989; </text><text x="40" textLength="176" font-weight="bold" class="color8">../example/ok6-2000.ts</text></g><g id="g27"><text x="0" textLength="144" font-weight="bold" class="foreground">  &#10060; ./ko1-6000.ts</text></g><g id="g28"><text x="0" textLength="520" font-weight="bold" class="color8">&#8595;&#8595;&#8595;&#8595;&#8595;&#8595;&#8595;&#8595;&#8595;&#8595;&#8595;&#8595;&#8595;&#8595;&#8595;&#8595;&#8595;&#8595;&#8595;&#8595;&#8595;&#8595;&#8595;&#8595;&#8595;&#8595;&#8595;&#8595;&#8595;&#8595;&#8595;&#8595;&#8595;&#8595;&#8595;&#8595;&#8595;&#8595;&#8595;&#8595;&#8595;&#8595;&#8595;&#8595;&#8595;&#8595;&#8595;&#8595;&#8595;&#8595;&#8595;&#8595;&#8595;&#8595;&#8595;&#8595;&#8595;&#8595;&#8595;&#8595;&#8595;&#8595;&#8595;&#8595;&#8595;</text></g><g id="g29"><text x="0" textLength="96" font-weight="bold" class="foreground">------------</text></g><g id="g30"><text x="0" textLength="248" font-weight="bold" class="foreground">Log of : ../example/ko2-1000.ts</text></g><g id="g31"><text x="0" textLength="312" font-weight="bold" class="foreground">From   : /tmp/pre_commit_progress/.idea</text></g><g id="g32"><text x="0" textLength="208" font-weight="bold" class="foreground">[23:47:42.107] ko 2 stdout</text></g><g id="g33"><text x="0" textLength="208" font-weight="bold" class="foreground">[23:47:42.107] ko 2 stderr</text></g><g id="g34"><text x="0" textLength="120" font-weight="bold" class="foreground">[23:47:42.111] </text></g><g id="g35"><text x="0" textLength="112" font-weight="bold" class="foreground">[23:47:42.111]</text></g><g id="g36"><text x="0" textLength="176" font-weight="bold" class="foreground">Log of : ./ko1-6000.ts</text></g><g id="g37"><text x="0" textLength="328" font-weight="bold" class="foreground">From   : /tmp/pre_commit_progress/example</text></g><g id="g38"><text x="0" textLength="208" font-weight="bold" class="foreground">[23:47:45.003] ko 1 stdout</text></g><g id="g39"><text x="0" textLength="208" font-weight="bold" class="foreground">[23:47:45.004] ko 1 stderr</text></g><g id="g40"><text x="0" textLength="120" font-weight="bold" class="foreground">[23:47:45.006] </text></g><g id="g41"><text x="0" textLength="112" font-weight="bold" class="foreground">[23:47:45.007]</text></g><g id="g42"><text x="0" textLength="216" font-weight="bold" class="foreground">&#128194; /tmp/pre_commit_progress</text></g><g id="g43"><text x="0" textLength="40" font-weight="bold" class="foreground">  &#9989; </text><text x="40" textLength="16" font-weight="bold" class="color8">..</text><text x="56" textLength="8" class="color2"> </text></g><g id="g44"><text x="0" textLength="520" font-weight="bold" class="color8">                                                                 </text></g><g id="g45"><text x="0" textLength="520" font-weight="bold" class="color8">                              ERROR                              </text></g><g id="g46"><text x="0" textLength="8" class="background"> </text></g></defs><g id="screen_view"><g/><g><use xlink:href="#g1" y="578"/><rect x="40" y="595" width="168" height="17" class="color4"/><use xlink:href="#g2" y="595"/><rect x="40" y="612" width="168" height="17" class="color4"/><use xlink:href="#g3" y="612"/><use xlink:href="#g4" y="629"/><rect x="40" y="646" width="104" height="17" class="color4"/><use xlink:href="#g5" y="646"/><rect x="40" y="663" width="104" height="17" class="color4"/><use xlink:href="#g6" y="663"/><rect x="40" y="680" width="104" height="17" class="color4"/><use xlink:href="#g7" y="680"/><use xlink:href="#g8" y="697"/><rect x="40" y="714" width="176" height="17" class="color4"/><use xlink:href="#g9" y="714"/><rect x="40" y="731" width="176" height="17" class="color4"/><use xlink:href="#g10" y="731"/><rect x="40" y="748" width="176" height="17" class="color4"/><use xlink:href="#g11" y="748"/></g><g><use xlink:href="#g12" y="1156"/><rect x="40" y="1173" width="168" height="17" class="color3"/><use xlink:href="#g13" y="1173"/><rect x="40" y="1190" width="168" height="17" class="color4"/><use xlink:href="#g3" y="1190"/><use xlink:href="#g4" y="1207"/><rect x="40" y="1224" width="104" height="17" class="color4"/><use xlink:href="#g5" y="1224"/><rect x="40" y="1241" width="104" height="17" class="color4"/><use xlink:href="#g6" y="1241"/><rect x="40" y="1258" width="104" height="17" class="color4"/><use xlink:href="#g7" y="1258"/><use xlink:href="#g8" y="1275"/><rect x="40" y="1292" width="176" height="17" class="color4"/><use xlink:href="#g9" y="1292"/><rect x="40" y="1309" width="176" height="17" class="color4"/><use xlink:href="#g10" y="1309"/><rect x="40" y="1326" width="176" height="17" class="color4"/><use xlink:href="#g11" y="1326"/></g><g><use xlink:href="#g12" y="1734"/><rect x="40" y="1751" width="168" height="17" class="color3"/><use xlink:href="#g13" y="1751"/><rect x="40" y="1768" width="168" height="17" class="color3"/><use xlink:href="#g14" y="1768"/><use xlink:href="#g4" y="1785"/><rect x="40" y="1802" width="104" height="17" class="color4"/><use xlink:href="#g5" y="1802"/><rect x="40" y="1819" width="104" height="17" class="color4"/><use xlink:href="#g6" y="1819"/><rect x="40" y="1836" width="104" height="17" class="color4"/><use xlink:href="#g7" y="1836"/><use xlink:href="#g8" y="1853"/><rect x="40" y="1870" width="176" height="17" class="color4"/><use xlink:href="#g9" y="1870"/><rect x="40" y="1887" width="176" height="17" class="color4"/><use xlink:href="#g10" y="1887"/><rect x="40" y="1904" width="176" height="17" class="color4"/><use xlink:href="#g11" y="1904"/></g><g><use xlink:href="#g12" y="2312"/><rect x="40" y="2329" width="168" height="17" class="color3"/><use xlink:href="#g13" y="2329"/><rect x="40" y="2346" width="168" height="17" class="color3"/><use xlink:href="#g14" y="2346"/><use xlink:href="#g4" y="2363"/><rect x="40" y="2380" width="104" height="17" class="color3"/><use xlink:href="#g15" y="2380"/><rect x="40" y="2397" width="104" height="17" class="color4"/><use xlink:href="#g6" y="2397"/><rect x="40" y="2414" width="104" height="17" class="color4"/><use xlink:href="#g7" y="2414"/><use xlink:href="#g8" y="2431"/><rect x="40" y="2448" width="176" height="17" class="color4"/><use xlink:href="#g9" y="2448"/><rect x="40" y="2465" width="176" height="17" class="color4"/><use xlink:href="#g10" y="2465"/><rect x="40" y="2482" width="176" height="17" class="color4"/><use xlink:href="#g11" y="2482"/></g><g><use xlink:href="#g12" y="2890"/><rect x="40" y="2907" width="168" height="17" class="color2"/><use xlink:href="#g16" y="2907"/><rect x="40" y="2924" width="168" height="17" class="color3"/><use xlink:href="#g14" y="2924"/><use xlink:href="#g4" y="2941"/><rect x="40" y="2958" width="104" height="17" class="color3"/><use xlink:href="#g15" y="2958"/><rect x="40" y="2975" width="104" height="17" class="color3"/><use xlink:href="#g17" y="2975"/><rect x="40" y="2992" width="104" height="17" class="color4"/><use xlink:href="#g7" y="2992"/><use xlink:href="#g8" y="3009"/><rect x="40" y="3026" width="176" height="17" class="color4"/><use xlink:href="#g9" y="3026"/><rect x="40" y="3043" width="176" height="17" class="color4"/><use xlink:href="#g10" y="3043"/><rect x="40" y="3060" width="176" height="17" class="color4"/><use xlink:href="#g11" y="3060"/></g><g><use xlink:href="#g12" y="3468"/><rect x="40" y="3485" width="168" height="17" class="color2"/><use xlink:href="#g16" y="3485"/><rect x="40" y="3502" width="168" height="17" class="color3"/><use xlink:href="#g14" y="3502"/><use xlink:href="#g4" y="3519"/><rect x="40" y="3536" width="104" height="17" class="color3"/><use xlink:href="#g15" y="3536"/><rect x="40" y="3553" width="104" height="17" class="color3"/><use xlink:href="#g17" y="3553"/><rect x="40" y="3570" width="104" height="17" class="color4"/><use xlink:href="#g7" y="3570"/><use xlink:href="#g8" y="3587"/><rect x="40" y="3604" width="176" height="17" class="color4"/><use xlink:href="#g9" y="3604"/><rect x="40" y="3621" width="176" height="17" class="color4"/><use xlink:href="#g10" y="3621"/><rect x="40" y="3638" width="176" height="17" class="color4"/><use xlink:href="#g11" y="3638"/></g><g><use xlink:href="#g12" y="4046"/><rect x="40" y="4063" width="168" height="17" class="color2"/><use xlink:href="#g16" y="4063"/><rect x="40" y="4080" width="168" height="17" class="color3"/><use xlink:href="#g14" y="4080"/><use xlink:href="#g4" y="4097"/><rect x="40" y="4114" width="104" height="17" class="color3"/><use xlink:href="#g15" y="4114"/><rect x="40" y="4131" width="104" height="17" class="color2"/><use xlink:href="#g18" y="4131"/><rect x="40" y="4148" width="104" height="17" class="color3"/><use xlink:href="#g19" y="4148"/><use xlink:href="#g8" y="4165"/><rect x="40" y="4182" width="176" height="17" class="color4"/><use xlink:href="#g9" y="4182"/><rect x="40" y="4199" width="176" height="17" class="color4"/><use xlink:href="#g10" y="4199"/><rect x="40" y="4216" width="176" height="17" class="color4"/><use xlink:href="#g11" y="4216"/></g><g><use xlink:href="#g12" y="4624"/><rect x="40" y="4641" width="168" height="17" class="color2"/><use xlink:href="#g16" y="4641"/><rect x="40" y="4658" width="168" height="17" class="color3"/><use xlink:href="#g14" y="4658"/><use xlink:href="#g4" y="4675"/><rect x="40" y="4692" width="104" height="17" class="color3"/><use xlink:href="#g15" y="4692"/><rect x="40" y="4709" width="104" height="17" class="color2"/><use xlink:href="#g18" y="4709"/><rect x="40" y="4726" width="104" height="17" class="color3"/><use xlink:href="#g19" y="4726"/><use xlink:href="#g8" y="4743"/><rect x="40" y="4760" width="176" height="17" class="color4"/><use xlink:href="#g9" y="4760"/><rect x="40" y="4777" width="176" height="17" class="color4"/><use xlink:href="#g10" y="4777"/><rect x="40" y="4794" width="176" height="17" class="color4"/><use xlink:href="#g11" y="4794"/></g><g><use xlink:href="#g12" y="5202"/><rect x="40" y="5219" width="168" height="17" class="color2"/><use xlink:href="#g16" y="5219"/><rect x="40" y="5236" width="168" height="17" class="color3"/><use xlink:href="#g14" y="5236"/><use xlink:href="#g4" y="5253"/><rect x="40" y="5270" width="104" height="17" class="color3"/><use xlink:href="#g15" y="5270"/><rect x="40" y="5287" width="104" height="17" class="color2"/><use xlink:href="#g18" y="5287"/><rect x="40" y="5304" width="104" height="17" class="color2"/><use xlink:href="#g20" y="5304"/><use xlink:href="#g8" y="5321"/><rect x="40" y="5338" width="176" height="17" class="color3"/><use xlink:href="#g21" y="5338"/><rect x="40" y="5355" width="176" height="17" class="color4"/><use xlink:href="#g10" y="5355"/><rect x="40" y="5372" width="176" height="17" class="color4"/><use xlink:href="#g11" y="5372"/></g><g><use xlink:href="#g12" y="5780"/><rect x="40" y="5797" width="168" height="17" class="color2"/><use xlink:href="#g16" y="5797"/><rect x="40" y="5814" width="168" height="17" class="color3"/><use xlink:href="#g14" y="5814"/><use xlink:href="#g4" y="5831"/><rect x="40" y="5848" width="104" height="17" class="color3"/><use xlink:href="#g15" y="5848"/><rect x="40" y="5865" width="104" height="17" class="color2"/><use xlink:href="#g18" y="5865"/><rect x="40" y="5882" width="104" height="17" class="color2"/><use xlink:href="#g20" y="5882"/><use xlink:href="#g8" y="5899"/><rect x="40" y="5916" width="176" height="17" class="color3"/><use xlink:href="#g21" y="5916"/><rect x="40" y="5933" width="176" height="17" class="color4"/><use xlink:href="#g10" y="5933"/><rect x="40" y="5950" width="176" height="17" class="color4"/><use xlink:href="#g11" y="5950"/></g><g><use xlink:href="#g12" y="6358"/><rect x="40" y="6375" width="168" height="17" class="color2"/><use xlink:href="#g16" y="6375"/><rect x="40" y="6392" width="168" height="17" class="color3"/><use xlink:href="#g14" y="6392"/><use xlink:href="#g4" y="6409"/><rect x="40" y="6426" width="104" height="17" class="color3"/><use xlink:href="#g15" y="6426"/><rect x="40" y="6443" width="104" height="17" class="color2"/><use xlink:href="#g18" y="6443"/><rect x="40" y="6460" width="104" height="17" class="color2"/><use xlink:href="#g20" y="6460"/><use xlink:href="#g8" y="6477"/><rect x="40" y="6494" width="176" height="17" class="color3"/><use xlink:href="#g21" y="6494"/><rect x="40" y="6511" width="176" height="17" class="color1"/><use xlink:href="#g22" y="6511"/><rect x="40" y="6528" width="176" height="17" class="color4"/><use xlink:href="#g11" y="6528"/></g><g><use xlink:href="#g12" y="6936"/><rect x="40" y="6953" width="168" height="17" class="color2"/><use xlink:href="#g16" y="6953"/><rect x="40" y="6970" width="168" height="17" class="color3"/><use xlink:href="#g14" y="6970"/><use xlink:href="#g4" y="6987"/><rect x="40" y="7004" width="104" height="17" class="color3"/><use xlink:href="#g15" y="7004"/><rect x="40" y="7021" width="104" height="17" class="color2"/><use xlink:href="#g18" y="7021"/><rect x="40" y="7038" width="104" height="17" class="color2"/><use xlink:href="#g20" y="7038"/><use xlink:href="#g8" y="7055"/><rect x="40" y="7072" width="176" height="17" class="color3"/><use xlink:href="#g21" y="7072"/><rect x="40" y="7089" width="176" height="17" class="color1"/><use xlink:href="#g22" y="7089"/><rect x="40" y="7106" width="176" height="17" class="color4"/><use xlink:href="#g11" y="7106"/></g><g><use xlink:href="#g12" y="7514"/><rect x="40" y="7531" width="168" height="17" class="color2"/><use xlink:href="#g16" y="7531"/><rect x="40" y="7548" width="168" height="17" class="color3"/><use xlink:href="#g14" y="7548"/><use xlink:href="#g4" y="7565"/><rect x="40" y="7582" width="104" height="17" class="color3"/><use xlink:href="#g15" y="7582"/><rect x="40" y="7599" width="104" height="17" class="color2"/><use xlink:href="#g18" y="7599"/><rect x="40" y="7616" width="104" height="17" class="color2"/><use xlink:href="#g20" y="7616"/><use xlink:href="#g8" y="7633"/><rect x="40" y="7650" width="176" height="17" class="color2"/><use xlink:href="#g23" y="7650"/><rect x="40" y="7667" width="176" height="17" class="color1"/><use xlink:href="#g22" y="7667"/><rect x="40" y="7684" width="176" height="17" class="color3"/><use xlink:href="#g24" y="7684"/></g><g><use xlink:href="#g12" y="8092"/><rect x="40" y="8109" width="168" height="17" class="color2"/><use xlink:href="#g16" y="8109"/><rect x="40" y="8126" width="168" height="17" class="color2"/><use xlink:href="#g25" y="8126"/><use xlink:href="#g4" y="8143"/><rect x="40" y="8160" width="104" height="17" class="color3"/><use xlink:href="#g15" y="8160"/><rect x="40" y="8177" width="104" height="17" class="color2"/><use xlink:href="#g18" y="8177"/><rect x="40" y="8194" width="104" height="17" class="color2"/><use xlink:href="#g20" y="8194"/><use xlink:href="#g8" y="8211"/><rect x="40" y="8228" width="176" height="17" class="color2"/><use xlink:href="#g23" y="8228"/><rect x="40" y="8245" width="176" height="17" class="color1"/><use xlink:href="#g22" y="8245"/><rect x="40" y="8262" width="176" height="17" class="color3"/><use xlink:href="#g24" y="8262"/></g><g><use xlink:href="#g12" y="8670"/><rect x="40" y="8687" width="168" height="17" class="color2"/><use xlink:href="#g16" y="8687"/><rect x="40" y="8704" width="168" height="17" class="color2"/><use xlink:href="#g25" y="8704"/><use xlink:href="#g4" y="8721"/><rect x="40" y="8738" width="104" height="17" class="color3"/><use xlink:href="#g15" y="8738"/><rect x="40" y="8755" width="104" height="17" class="color2"/><use xlink:href="#g18" y="8755"/><rect x="40" y="8772" width="104" height="17" class="color2"/><use xlink:href="#g20" y="8772"/><use xlink:href="#g8" y="8789"/><rect x="40" y="8806" width="176" height="17" class="color2"/><use xlink:href="#g23" y="8806"/><rect x="40" y="8823" width="176" height="17" class="color1"/><use xlink:href="#g22" y="8823"/><rect x="40" y="8840" width="176" height="17" class="color2"/><use xlink:href="#g26" y="8840"/></g><g><use xlink:href="#g12" y="9248"/><rect x="40" y="9265" width="168" height="17" class="color2"/><use xlink:href="#g16" y="9265"/><rect x="40" y="9282" width="168" height="17" class="color2"/><use xlink:href="#g25" y="9282"/><use xlink:href="#g4" y="9299"/><rect x="40" y="9316" width="104" height="17" class="color1"/><use xlink:href="#g27" y="9316"/><rect x="40" y="9333" width="104" height="17" class="color2"/><use xlink:href="#g18" y="9333"/><rect x="40" y="9350" width="104" height="17" class="color2"/><use xlink:href="#g20" y="9350"/><use xlink:href="#g8" y="9367"/><rect x="40" y="9384" width="176" height="17" class="color2"/><use xlink:href="#g23" y="9384"/><rect x="40" y="9401" width="176" height="17" class="color1"/><use xlink:href="#g22" y="9401"/><rect x="40" y="9418" width="176" height="17" class="color2"/><use xlink:href="#g26" y="9418"/></g><g><rect x="0" y="9911" width="520" height="17" class="color1"/><use xlink:href="#g28" y="9911"/><use xlink:href="#g29" y="9928"/><use xlink:href="#g30" y="9945"/><use xlink:href="#g31" y="9962"/><use xlink:href="#g32" y="9996"/><rect x="8" y="10013" width="96" height="17" class="color1"/><use xlink:href="#g33" y="10013"/><rect x="8" y="10030" width="96" height="17" class="color1"/><use xlink:href="#g34" y="10030"/><use xlink:href="#g35" y="10047"/><use xlink:href="#g29" y="10064"/><use xlink:href="#g36" y="10081"/><use xlink:href="#g37" y="10098"/><use xlink:href="#g38" y="10132"/><rect x="8" y="10149" width="96" height="17" class="color1"/><use xlink:href="#g39" y="10149"/><rect x="8" y="10166" width="96" height="17" class="color1"/><use xlink:href="#g40" y="10166"/><use xlink:href="#g41" y="10183"/><use xlink:href="#g42" y="10217"/><rect x="40" y="10234" width="168" height="17" class="color2"/><use xlink:href="#g16" y="10234"/><rect x="40" y="10251" width="168" height="17" class="color2"/><use xlink:href="#g25" y="10251"/><use xlink:href="#g4" y="10268"/><rect x="40" y="10285" width="104" height="17" class="color1"/><use xlink:href="#g27" y="10285"/><rect x="40" y="10302" width="104" height="17" class="color2"/><use xlink:href="#g18" y="10302"/><rect x="40" y="10319" width="104" height="17" class="color2"/><use xlink:href="#g20" y="10319"/><use xlink:href="#g8" y="10336"/><rect x="40" y="10353" width="16" height="17" class="color2"/><rect x="56" y="10353" width="8" height="17" class="color0"/><use xlink:href="#g43" y="10353"/></g><g><use xlink:href="#g32" y="10404"/><rect x="8" y="10421" width="96" height="17" class="color1"/><use xlink:href="#g33" y="10421"/><rect x="8" y="10438" width="96" height="17" class="color1"/><use xlink:href="#g34" y="10438"/><use xlink:href="#g35" y="10455"/><use xlink:href="#g29" y="10472"/><use xlink:href="#g36" y="10489"/><use xlink:href="#g37" y="10506"/><use xlink:href="#g38" y="10540"/><rect x="8" y="10557" width="96" height="17" class="color1"/><use xlink:href="#g39" y="10557"/><rect x="8" y="10574" width="96" height="17" class="color1"/><use xlink:href="#g40" y="10574"/><use xlink:href="#g41" y="10591"/><use xlink:href="#g42" y="10625"/><rect x="40" y="10642" width="168" height="17" class="color2"/><use xlink:href="#g16" y="10642"/><rect x="40" y="10659" width="168" height="17" class="color2"/><use xlink:href="#g25" y="10659"/><use xlink:href="#g4" y="10676"/><rect x="40" y="10693" width="104" height="17" class="color1"/><use xlink:href="#g27" y="10693"/><rect x="40" y="10710" width="104" height="17" class="color2"/><use xlink:href="#g18" y="10710"/><rect x="40" y="10727" width="104" height="17" class="color2"/><use xlink:href="#g20" y="10727"/><use xlink:href="#g8" y="10744"/><rect x="40" y="10761" width="176" height="17" class="color2"/><use xlink:href="#g23" y="10761"/><rect x="40" y="10778" width="176" height="17" class="color1"/><use xlink:href="#g22" y="10778"/><rect x="40" y="10795" width="176" height="17" class="color2"/><use xlink:href="#g26" y="10795"/><rect x="0" y="10829" width="520" height="17" class="color1"/><use xlink:href="#g44" y="10829"/><rect x="0" y="10846" width="520" height="17" class="color1"/><use xlink:href="#g44" y="10846"/><rect x="0" y="10863" width="520" height="17" class="color1"/><use xlink:href="#g45" y="10863"/><rect x="0" y="10880" width="520" height="17" class="color1"/><use xlink:href="#g44" y="10880"/><rect x="0" y="10897" width="520" height="17" class="color1"/><use xlink:href="#g44" y="10897"/><rect x="0" y="10931" width="8" height="17" class="foreground"/><use xlink:href="#g46" y="10931"/></g></g></svg>
    <text id="timer" class="foreground">0:00/0:00</text>
    <!-- Invisible, wider track to make frame seeking easier -->
    <use xlink:href="#slider_wide_track" id="wide_track" class="background"/>
    <!-- Visible track -->
    <use xlink:href="#slider_track" id="track" class="foreground"/>
    <use xlink:href="#slider_button" id="slider_1"/>
    <use xlink:href="#icon-play" id="play-button" class="foreground"/>
    <use xlink:href="#icon-pause" id="pause-button" class="foreground"/>
    <script type="text/javascript" id="generated-js"><![CDATA[
        var termtosvg_vars = {
            transforms: [
                {transform: 'translate3D(0, 0px, 0)', easing: 'steps(1, end)'},
{transform: 'translate3D(0, -578px, 0)', easing: 'steps(1, end)', offset: 0.001},
{transform: 'translate3D(0, -1156px, 0)', easing: 'steps(1, end)', offset: 0.001},
{transform: 'translate3D(0, -1734px, 0)', easing: 'steps(1, end)', offset: 0.002},
{transform: 'translate3D(0, -2312px, 0)', easing: 'steps(1, end)', offset: 0.002},
{transform: 'translate3D(0, -2890px, 0)', easing: 'steps(1, end)', offset: 0.096},
{transform: 'translate3D(0, -3468px, 0)', easing: 'steps(1, end)', offset: 0.096},
{transform: 'translate3D(0, -4046px, 0)', easing: 'steps(1, end)', offset: 0.098},
{transform: 'translate3D(0, -4624px, 0)', easing: 'steps(1, end)', offset: 0.098},
{transform: 'translate3D(0, -5202px, 0)', easing: 'steps(1, end)', offset: 0.191},
{transform: 'translate3D(0, -5780px, 0)', easing: 'steps(1, end)', offset: 0.191},
{transform: 'translate3D(0, -6358px, 0)', easing: 'steps(1, end)', offset: 0.286},
{transform: 'translate3D(0, -6936px, 0)', easing: 'steps(1, end)', offset: 0.286},
{transform: 'translate3D(0, -7514px, 0)', easing: 'steps(1, end)', offset: 0.373},
{transform: 'translate3D(0, -8092px, 0)', easing: 'steps(1, end)', offset: 0.458},
{transform: 'translate3D(0, -8670px, 0)', easing: 'steps(1, end)', offset: 0.472},
{transform: 'translate3D(0, -9248px, 0)', easing: 'steps(1, end)', offset: 0.548},
{transform: 'translate3D(0, -9826px, 0)', easing: 'steps(1, end)', offset: 0.548},
{transform: 'translate3D(0, -10404px, 0)', easing: 'steps(1, end)', offset: 0.548},
{transform: 'translate3D(0, -10404px, 0)', easing: 'steps(1, end)'}
            ],
            timings: {
                duration: 11073,
                iterations: Infinity
            }
        };]]></script>
    <script type="text/javascript">
var animation = document.getElementById("screen_view").animate(
    termtosvg_vars.transforms,
    termtosvg_vars.timings
)
var terminal   = document.getElementById('terminal')
var play_button = terminal.getElementById('play-button');
var pause_button = terminal.getElementById('pause-button');
var is_playing = true;

animation.onfinish = function() {
  play_button.setAttribute('display', 'inline')
  pause_button.setAttribute('display', 'none')
  is_playing = false;
};

function togglePlayPause() {
    if (is_playing) {
      animation.pause()
      play_button.setAttribute('display', 'inline')
      pause_button.setAttribute('display', 'none')
      is_playing = false
    } else {
      animation.play()
      play_button.setAttribute('display', 'none')
      pause_button.setAttribute('display', 'inline')
      is_playing = true
    }
};

play_button.addEventListener('click', togglePlayPause, false)
pause_button.addEventListener('click', togglePlayPause, false)


var style = getComputedStyle(terminal);
var animation_duration = termtosvg_vars.timings.duration / 1000
var timer = terminal.getElementById('timer')

function timer_from_seconds(t) {
    minutes = Math.floor(t / 60);
    seconds = Math.floor(t % 60);
    return minutes + ':' + ("0" + seconds).slice(-2)
}
function update_timer() {
    var current_time = (animation.currentTime / 1000) % animation_duration
    timer.textContent =  timer_from_seconds(current_time) + "/" + timer_from_seconds(animation_duration)
}
setInterval(update_timer, "100ms")




var slider_1  = terminal.getElementById('slider_1');
function getTranslateX(elem) {
  var style = window.getComputedStyle(elem);
  var matrix = new WebKitCSSMatrix(style.webkitTransform);
  return parseInt(matrix.m41)
}

var limitLower = parseInt(getTranslateX(terminal.getElementById('track')));
var limitUpper = limitLower + parseInt(terminal.getElementById('track').getBoundingClientRect().width) - 8

// Return X position for an event
function mx(evt){
    var pt = terminal.createSVGPoint();
    pt.x = evt.clientX;
    return pt.matrixTransform(terminal.getScreenCTM().inverse());
}

// Set the current time of the animation to get the slider button under the cursor
var move = function(evt){
    var cursor_position = mx(evt);
    if ( cursor_position.x &lt; limitLower || cursor_position.x &gt; limitUpper ) {
        return;
    }
    animation.currentTime = animation_duration * 1000 * (cursor_position.x - limitLower) / (limitUpper - limitLower)
};

// Move the slider button to the cursor position when a click happens on the track of the slider
terminal.getElementById('wide_track').addEventListener('click', move, false);
terminal.getElementById('track').addEventListener('click', move, false);

// Enable slider button dragging along the track
var dragging = false;
slider_1.addEventListener('mousedown',function(evt){
        if (is_playing) {
            animation.pause()
            play_button.setAttribute('display', 'inline')
            pause_button.setAttribute('display', 'none')
        }

        dragging = true;
        terminal.addEventListener('mousemove', move, false);
        document.documentElement.addEventListener('mouseup', function(){
                dragging = false;
                if (is_playing) {
                    animation.play()
                    play_button.setAttribute('display', 'none')
                    pause_button.setAttribute('display', 'inline')
                }
                terminal.removeEventListener('mousemove', move, false);
        }, false);
}, false);

function update_slider_button() {
    var current_time = (animation.currentTime / 1000) % animation_duration
    var current_position = limitLower + (limitUpper - limitLower) * current_time / animation_duration
    slider_1.setAttribute('x', parseInt(current_position)+'px')
}

setInterval(update_slider_button, "100ms")
</script>
</svg>